<?xml version="1.0" encoding="UTF-8" standalone="no"?>
<svg
   width="48"
   height="48"
   version="1"
   id="svg126"
   sodipodi:docname="com.github.halfmexican.hacer.svg"
   inkscape:version="1.1.2 (0a00cf5339, 2022-02-04)"
   xmlns:inkscape="http://www.inkscape.org/namespaces/inkscape"
   xmlns:sodipodi="http://sodipodi.sourceforge.net/DTD/sodipodi-0.dtd"
   xmlns="http://www.w3.org/2000/svg"
   xmlns:svg="http://www.w3.org/2000/svg">
  <defs
     id="defs130" />
  <sodipodi:namedview
     id="namedview128"
     pagecolor="#ffffff"
     bordercolor="#666666"
     borderopacity="1.0"
     inkscape:pageshadow="2"
     inkscape:pageopacity="0.0"
     inkscape:pagecheckerboard="0"
     showgrid="false"
     inkscape:zoom="25.721009"
     inkscape:cx="2.4104809"
     inkscape:cy="16.640094"
     inkscape:window-width="3440"
     inkscape:window-height="1371"
     inkscape:window-x="0"
     inkscape:window-y="32"
     inkscape:window-maximized="1"
     inkscape:current-layer="svg126" />
  <rect
     style="opacity:1;mix-blend-mode:normal;fill:#d07106;fill-opacity:1"
     width="40"
     height="40"
     x="4"
     y="5"
     rx="2"
     ry="2"
     id="rect116" />
  <rect
     style="fill:#fbb86c;fill-opacity:1"
     width="40"
     height="40"
     x="4"
     y="4"
     rx="2"
     ry="2"
     id="rect118" />
  <path
     style="opacity:0.2;fill:#ffffff;fill-opacity:1"
     d="M 6,4 C 4.892,4 4,4.892 4,6 V 7 C 4,5.892 4.892,5 6,5 h 36 c 1.108,0 2,0.892 2,2 V 6 C 44,4.892 43.108,4 42,4 Z"
     id="path120" />
  <circle
     style="fill:none;stroke:#171717;stroke-width:1.86331;stroke-miterlimit:4;stroke-dasharray:none"
     id="path1198"
     cx="22.103518"
     cy="25.008665"
     r="11.527225" />
  <rect
     style="fill:#fbb86c;fill-opacity:1;stroke:#fbb86c;stroke-width:2.24214;stroke-miterlimit:4;stroke-dasharray:none;stroke-opacity:1"
     id="rect2024"
     width="7.5941815"
     height="9.3067684"
     x="32.748508"
     y="-8.6671858"
     transform="matrix(0.78613756,0.61805157,-0.62252449,0.78260032,0,0)" />
  <g
     inkscape:groupmode="layer"
     id="layer1"
     inkscape:label="Layer 1">
    <path
       style="fill:none;stroke:#171717;stroke-width:8;stroke-linecap:round;stroke-linejoin:round;stroke-opacity:1"
       d="m 16.182331,24.532254 7.000401,5.000202 11,-14"
       id="path124" />
    <path
       style="opacity:0.1;fill:none;stroke:#000000;stroke-width:8;stroke-linecap:round;stroke-linejoin:round;stroke-miterlimit:4;stroke-dasharray:none"
       d="m 16.182331,25.532254 7.000401,5.000202 11,-14"
       id="path122" />
  </g>
  <g
     inkscape:groupmode="layer"
     id="layer2"
     inkscape:label="Layer 2" />
</svg>
